<svg width="160" height="56" viewBox="0 0 160 56" fill="none" xmlns="http://www.w3.org/2000/svg">
<path fill-rule="evenodd" clip-rule="evenodd" d="M44.0466 30.8553C43.2812 30.1423 42.7996 29.1268 42.7996 27.9993C42.7996 26.8719 43.2812 25.8564 44.0466 25.1433C44.2519 24.9492 44.4834 24.7812 44.726 24.6393C45.4914 23.9263 45.973 22.9108 45.973 21.7833C45.973 19.6329 44.2258 17.8857 42.0716 17.8857C39.9175 17.8857 38.1703 19.6292 38.1703 21.7833C38.1703 22.9108 38.6519 23.9263 39.4172 24.6393C39.6636 24.7812 39.8914 24.9529 40.0967 25.1433C40.8658 25.8564 41.3436 26.8719 41.3436 27.9993C41.3436 29.1268 40.862 30.146 40.0967 30.8553C39.8914 31.0495 39.6636 31.2175 39.4172 31.3593C38.6482 32.0724 38.1703 33.0879 38.1703 34.2153C38.1703 36.3657 39.9175 38.1129 42.0716 38.1129C44.2258 38.1129 45.973 36.3695 45.973 34.2153C45.973 33.0879 45.4914 32.0724 44.726 31.3593C44.4796 31.2175 44.2519 31.0457 44.0466 30.8553Z" fill="#5A03EE"/>
<path fill-rule="evenodd" clip-rule="evenodd" d="M28.3545 13.1233C29.1236 13.8364 29.6015 14.8519 29.6015 15.9793C29.6015 17.1068 29.1199 18.1223 28.3545 18.8353C28.1492 19.0257 27.9177 19.1975 27.6751 19.3393C26.9097 20.0524 26.4281 21.0679 26.4281 22.1953C26.4281 24.3457 28.1753 26.0929 30.3295 26.0929C32.4836 26.0929 34.2308 24.3495 34.2308 22.1953C34.2308 21.0679 33.7492 20.0524 32.9839 19.3393C32.7375 19.1937 32.5097 19.0257 32.3044 18.8353C31.5353 18.1223 31.0575 17.1068 31.0575 15.9793C31.0575 14.8519 31.5391 13.8364 32.3044 13.1233C32.5097 12.9329 32.7375 12.7612 32.9839 12.6193C33.7529 11.9063 34.2308 10.8908 34.2308 9.76332C34.2308 7.61292 32.4836 5.86572 30.3295 5.86572C28.1753 5.86572 26.4281 7.60919 26.4281 9.76332C26.4281 10.8908 26.9097 11.9063 27.6751 12.6193C27.9215 12.7649 28.1492 12.9329 28.3545 13.1233Z" fill="#004BEE"/>
<path fill-rule="evenodd" clip-rule="evenodd" d="M20.5591 30.8553C19.7937 30.1423 19.3121 29.1268 19.3121 27.9993C19.3121 26.8719 19.7937 25.8564 20.5591 25.1433C20.7681 24.9492 20.9959 24.7812 21.2385 24.6393C22.0039 23.9263 22.4855 22.9108 22.4855 21.7833C22.4855 19.6329 20.7383 17.8857 18.5841 17.8857C16.43 17.8857 14.6828 19.6292 14.6828 21.7833C14.6828 22.9108 15.1644 23.9263 15.9297 24.6393C16.1761 24.7812 16.4039 24.9529 16.6092 25.1433C17.3783 25.8564 17.8561 26.8719 17.8561 27.9993C17.8561 29.1268 17.3745 30.146 16.6092 30.8553C16.4039 31.0495 16.1724 31.2175 15.9297 31.3593C15.1607 32.0724 14.6828 33.0879 14.6828 34.2153C14.6828 36.3657 16.43 38.1129 18.5841 38.1129C20.7383 38.1129 22.4855 36.3695 22.4855 34.2153C22.4855 33.0879 22.0039 32.0724 21.2385 31.3593C20.9921 31.2175 20.7644 31.0457 20.5591 30.8553Z" fill="#5A03EE"/>
<path fill-rule="evenodd" clip-rule="evenodd" d="M32.3044 42.8773C31.5353 42.1642 31.0575 41.1488 31.0575 40.0213C31.0575 38.8938 31.5391 37.8784 32.3044 37.1653C32.5097 36.9749 32.7375 36.8032 32.9839 36.6613C33.7492 35.9482 34.2308 34.9328 34.2308 33.8053C34.2308 31.6549 32.4836 29.9077 30.3295 29.9077C28.1753 29.9077 26.4281 31.6512 26.4281 33.8053C26.4281 34.9328 26.9097 35.9482 27.6751 36.6613C27.9215 36.8032 28.1492 36.9749 28.3545 37.1653C29.1236 37.8784 29.6015 38.8938 29.6015 40.0213C29.6015 41.1488 29.1199 42.1642 28.3545 42.8773C28.1492 43.0677 27.9177 43.2394 27.6751 43.3813C26.906 44.0944 26.4281 45.1098 26.4281 46.2373C26.4281 48.3877 28.1753 50.1349 30.3295 50.1349C32.4836 50.1349 34.2308 48.3914 34.2308 46.2373C34.2308 45.1098 33.7492 44.0944 32.9839 43.3813C32.7375 43.2394 32.5097 43.0677 32.3044 42.8773Z" fill="#004BEE"/>
<path fill-rule="evenodd" clip-rule="evenodd" d="M7.00758 24.103C9.16172 24.103 10.9089 25.8465 10.9089 28.0006C10.9089 30.1548 9.16172 31.8982 7.00758 31.8982C4.85345 31.8982 3.10625 30.1548 3.10625 28.0006C3.10625 25.8465 4.85345 24.103 7.00758 24.103Z" fill="#008AED"/>
<path fill-rule="evenodd" clip-rule="evenodd" d="M53.6513 24.103C55.8055 24.103 57.5527 25.8465 57.5527 28.0006C57.5527 30.1548 55.8055 31.8982 53.6513 31.8982C51.4972 31.8982 49.75 30.1548 49.75 28.0006C49.75 25.8465 51.4972 24.103 53.6513 24.103Z" fill="#008AED"/>
<path d="M85.8891 38.7964H81.8795V31.8114H75.9398V38.7964H71.9078V22.0674H75.9398V28.709H81.8795V22.0674H85.8891V38.7964Z" fill="#424242"/>
<path d="M92.7395 38.7964H88.7188V22.0674H92.7395V38.7964Z" fill="#424242"/>
<path d="M99.5711 33.1184V38.793H95.5391V22.064H102.214C103.495 22.064 104.626 22.2992 105.608 22.7696C106.593 23.24 107.355 23.912 107.893 24.7818C108.434 25.6517 108.703 26.6373 108.703 27.7386C108.703 29.3701 108.12 30.673 106.952 31.6512C105.783 32.6293 104.182 33.1146 102.143 33.1146H99.5711V33.1184ZM99.5711 30.0048H102.214C102.995 30.0048 103.592 29.8106 104.003 29.4186C104.413 29.0266 104.619 28.4778 104.619 27.7648C104.619 26.9845 104.409 26.361 103.988 25.8906C103.566 25.424 102.991 25.185 102.263 25.1776H99.5748V30.001L99.5711 30.0048Z" fill="#424242"/>
<path d="M130.614 30.9722C130.614 32.6111 130.338 34.041 129.786 35.2618C129.233 36.4826 128.453 37.4159 127.441 38.0581C126.429 38.7002 125.25 39.0213 123.902 39.0213C122.554 39.0213 121.415 38.6965 120.396 38.0506C119.377 37.4047 118.586 36.4789 118.026 35.2805C117.462 34.0821 117.174 32.6933 117.159 31.1141V29.9082C117.159 28.2991 117.439 26.8805 117.999 25.6447C118.559 24.4127 119.351 23.4682 120.37 22.8149C121.393 22.1615 122.562 21.833 123.879 21.833C125.197 21.833 126.399 22.1578 127.422 22.8037C128.445 23.4495 129.233 24.3903 129.782 25.6186C130.334 26.8469 130.611 28.2767 130.611 29.9082V30.9647L130.614 30.9722ZM128.419 29.8933C128.419 27.9109 128.02 26.3877 127.224 25.3274C126.429 24.2671 125.313 23.737 123.879 23.737C122.446 23.737 121.389 24.2671 120.587 25.3274C119.788 26.3877 119.373 27.8623 119.351 29.7439V30.9722C119.351 32.8949 119.754 34.4069 120.564 35.5045C121.371 36.6021 122.483 37.1546 123.902 37.1546C125.32 37.1546 126.429 36.6357 127.209 35.5978C127.99 34.5599 128.393 33.0741 128.415 31.1327V29.8933H128.419Z" fill="#008AED"/>
<path d="M135.599 26.3654L135.666 27.9297C136.615 26.735 137.858 26.1377 139.388 26.1377C142.017 26.1377 143.342 27.6198 143.364 30.5841V38.7974H141.24V30.5729C141.233 29.6769 141.027 29.0161 140.624 28.5868C140.221 28.1574 139.598 27.9446 138.746 27.9446C138.056 27.9446 137.451 28.1276 136.932 28.4972C136.409 28.863 136.006 29.3484 135.715 29.9457V38.8049H133.591V26.3729H135.599V26.3654Z" fill="#008AED"/>
<path d="M151.731 39.024C150.047 39.024 148.673 38.4715 147.616 37.3627C146.56 36.2539 146.03 34.7755 146.03 32.9237V32.5317C146.03 31.2997 146.265 30.1984 146.735 29.2277C147.206 28.2608 147.866 27.4992 148.71 26.9541C149.558 26.4053 150.472 26.1328 151.462 26.1328C153.078 26.1328 154.333 26.6667 155.229 27.7307C156.125 28.7947 156.573 30.3179 156.573 32.304V33.1888H148.15C148.18 34.4133 148.538 35.4027 149.225 36.1605C149.912 36.9147 150.782 37.2917 151.839 37.2917C152.589 37.2917 153.224 37.1387 153.746 36.8325C154.265 36.5264 154.725 36.1195 155.113 35.6155L156.412 36.6272C155.37 38.2288 153.81 39.0277 151.727 39.0277L151.731 39.024ZM151.465 27.88C150.607 27.88 149.886 28.1936 149.304 28.8171C148.721 29.4405 148.363 30.3179 148.225 31.4416H154.452V31.2811C154.392 30.2021 154.101 29.3659 153.578 28.7723C153.056 28.1787 152.354 27.8837 151.465 27.8837V27.88Z" fill="#008AED"/>
</svg>
