<?xml version="1.0" encoding="utf-8"?>
<svg viewBox="-1.077 -3.841 63.616 63.224" width="63.616px" height="63.224px" fill="none" xmlns="http://www.w3.org/2000/svg">
  <path fill-rule="evenodd" clip-rule="evenodd" d="M44.0466 30.8553C43.2812 30.1423 42.7996 29.1268 42.7996 27.9993C42.7996 26.8719 43.2812 25.8564 44.0466 25.1433C44.2519 24.9492 44.4834 24.7812 44.726 24.6393C45.4914 23.9263 45.973 22.9108 45.973 21.7833C45.973 19.6329 44.2258 17.8857 42.0716 17.8857C39.9175 17.8857 38.1703 19.6292 38.1703 21.7833C38.1703 22.9108 38.6519 23.9263 39.4172 24.6393C39.6636 24.7812 39.8914 24.9529 40.0967 25.1433C40.8658 25.8564 41.3436 26.8719 41.3436 27.9993C41.3436 29.1268 40.862 30.146 40.0967 30.8553C39.8914 31.0495 39.6636 31.2175 39.4172 31.3593C38.6482 32.0724 38.1703 33.0879 38.1703 34.2153C38.1703 36.3657 39.9175 38.1129 42.0716 38.1129C44.2258 38.1129 45.973 36.3695 45.973 34.2153C45.973 33.0879 45.4914 32.0724 44.726 31.3593C44.4796 31.2175 44.2519 31.0457 44.0466 30.8553Z" fill="#5A03EE"/>
  <path fill-rule="evenodd" clip-rule="evenodd" d="M28.3545 13.1233C29.1236 13.8364 29.6015 14.8519 29.6015 15.9793C29.6015 17.1068 29.1199 18.1223 28.3545 18.8353C28.1492 19.0257 27.9177 19.1975 27.6751 19.3393C26.9097 20.0524 26.4281 21.0679 26.4281 22.1953C26.4281 24.3457 28.1753 26.0929 30.3295 26.0929C32.4836 26.0929 34.2308 24.3495 34.2308 22.1953C34.2308 21.0679 33.7492 20.0524 32.9839 19.3393C32.7375 19.1937 32.5097 19.0257 32.3044 18.8353C31.5353 18.1223 31.0575 17.1068 31.0575 15.9793C31.0575 14.8519 31.5391 13.8364 32.3044 13.1233C32.5097 12.9329 32.7375 12.7612 32.9839 12.6193C33.7529 11.9063 34.2308 10.8908 34.2308 9.76332C34.2308 7.61292 32.4836 5.86572 30.3295 5.86572C28.1753 5.86572 26.4281 7.60919 26.4281 9.76332C26.4281 10.8908 26.9097 11.9063 27.6751 12.6193C27.9215 12.7649 28.1492 12.9329 28.3545 13.1233Z" fill="#004BEE"/>
  <path fill-rule="evenodd" clip-rule="evenodd" d="M20.5591 30.8553C19.7937 30.1423 19.3121 29.1268 19.3121 27.9993C19.3121 26.8719 19.7937 25.8564 20.5591 25.1433C20.7681 24.9492 20.9959 24.7812 21.2385 24.6393C22.0039 23.9263 22.4855 22.9108 22.4855 21.7833C22.4855 19.6329 20.7383 17.8857 18.5841 17.8857C16.43 17.8857 14.6828 19.6292 14.6828 21.7833C14.6828 22.9108 15.1644 23.9263 15.9297 24.6393C16.1761 24.7812 16.4039 24.9529 16.6092 25.1433C17.3783 25.8564 17.8561 26.8719 17.8561 27.9993C17.8561 29.1268 17.3745 30.146 16.6092 30.8553C16.4039 31.0495 16.1724 31.2175 15.9297 31.3593C15.1607 32.0724 14.6828 33.0879 14.6828 34.2153C14.6828 36.3657 16.43 38.1129 18.5841 38.1129C20.7383 38.1129 22.4855 36.3695 22.4855 34.2153C22.4855 33.0879 22.0039 32.0724 21.2385 31.3593C20.9921 31.2175 20.7644 31.0457 20.5591 30.8553Z" fill="#5A03EE"/>
  <path fill-rule="evenodd" clip-rule="evenodd" d="M32.3044 42.8773C31.5353 42.1642 31.0575 41.1488 31.0575 40.0213C31.0575 38.8938 31.5391 37.8784 32.3044 37.1653C32.5097 36.9749 32.7375 36.8032 32.9839 36.6613C33.7492 35.9482 34.2308 34.9328 34.2308 33.8053C34.2308 31.6549 32.4836 29.9077 30.3295 29.9077C28.1753 29.9077 26.4281 31.6512 26.4281 33.8053C26.4281 34.9328 26.9097 35.9482 27.6751 36.6613C27.9215 36.8032 28.1492 36.9749 28.3545 37.1653C29.1236 37.8784 29.6015 38.8938 29.6015 40.0213C29.6015 41.1488 29.1199 42.1642 28.3545 42.8773C28.1492 43.0677 27.9177 43.2394 27.6751 43.3813C26.906 44.0944 26.4281 45.1098 26.4281 46.2373C26.4281 48.3877 28.1753 50.1349 30.3295 50.1349C32.4836 50.1349 34.2308 48.3914 34.2308 46.2373C34.2308 45.1098 33.7492 44.0944 32.9839 43.3813C32.7375 43.2394 32.5097 43.0677 32.3044 42.8773Z" fill="#004BEE"/>
  <path fill-rule="evenodd" clip-rule="evenodd" d="M7.00758 24.103C9.16172 24.103 10.9089 25.8465 10.9089 28.0006C10.9089 30.1548 9.16172 31.8982 7.00758 31.8982C4.85345 31.8982 3.10625 30.1548 3.10625 28.0006C3.10625 25.8465 4.85345 24.103 7.00758 24.103Z" fill="#008AED"/>
  <path fill-rule="evenodd" clip-rule="evenodd" d="M53.6513 24.103C55.8055 24.103 57.5527 25.8465 57.5527 28.0006C57.5527 30.1548 55.8055 31.8982 53.6513 31.8982C51.4972 31.8982 49.75 30.1548 49.75 28.0006C49.75 25.8465 51.4972 24.103 53.6513 24.103Z" fill="#008AED"/>
</svg>